<svg version="1.1" xmlns="http://www.w3.org/2000/svg" xmlns:xlink="http://www.w3.org/1999/xlink" width="857.630615234375" height="889"><defs/><g><g><rect fill="#C0C0C0" stroke="none" x="624.188232421875" y="218" width="239.4423828125" height="176" transform="matrix(1 0 0 1 -10 -10)" fill-opacity="0.2"/></g><g><rect fill="#FFFFFF" stroke="none" x="617.188232421875" y="211" width="239.4423828125" height="176" transform="matrix(1 0 0 1 -10 -10)"/></g><g><path fill="none" stroke="#000000" paint-order="fill stroke markers" d=" M 607.188232421875 201 L 846.630615234375 201 L 846.630615234375 377 L 607.188232421875 377 L 607.188232421875 201 Z Z" stroke-miterlimit="10" stroke-dasharray=""/></g><g><path fill="none" stroke="#000000" paint-order="fill stroke markers" d=" M 607.188232421875 226 L 846.630615234375 226" stroke-miterlimit="10" stroke-dasharray=""/></g><g><path fill="none" stroke="#000000" paint-order="fill stroke markers" d=" M 607.188232421875 339 L 846.630615234375 339" stroke-miterlimit="10" stroke-dasharray=""/></g><g><g><path fill="none" stroke="none"/><text fill="#000000" stroke="none" font-family="Arial" font-size="13px" font-style="normal" font-weight="bold" text-decoration="undefined" x="737.409423828125" y="224.5" text-anchor="middle" dominant-baseline="central" transform="matrix(1 0 0 1 -10 -10)">User</text></g></g><g><g><path fill="none" stroke="none"/><text fill="#000000" stroke="none" font-family="Arial" font-size="13px" font-style="normal" font-weight="normal" text-decoration="undefined" x="622.188232421875" y="247.5" text-anchor="start" dominant-baseline="central" transform="matrix(1 0 0 1 -10 -10)">+user_id: Integer {id, unique}</text></g></g><g><g><path fill="none" stroke="none"/><text fill="#000000" stroke="none" font-family="Arial" font-size="13px" font-style="normal" font-weight="normal" text-decoration="undefined" x="622.188232421875" y="262.5" text-anchor="start" dominant-baseline="central" transform="matrix(1 0 0 1 -10 -10)">+username: String(255)</text></g></g><g><g><path fill="none" stroke="none"/><text fill="#000000" stroke="none" font-family="Arial" font-size="13px" font-style="normal" font-weight="normal" text-decoration="undefined" x="622.188232421875" y="277.5" text-anchor="start" dominant-baseline="central" transform="matrix(1 0 0 1 -10 -10)">+email: String(255)</text></g></g><g><g><path fill="none" stroke="none"/><text fill="#000000" stroke="none" font-family="Arial" font-size="13px" font-style="normal" font-weight="normal" text-decoration="undefined" x="622.188232421875" y="292.5" text-anchor="start" dominant-baseline="central" transform="matrix(1 0 0 1 -10 -10)">+password: String(255)</text></g></g><g><g><path fill="none" stroke="none"/><text fill="#000000" stroke="none" font-family="Arial" font-size="13px" font-style="normal" font-weight="normal" text-decoration="undefined" x="622.188232421875" y="307.5" text-anchor="start" dominant-baseline="central" transform="matrix(1 0 0 1 -10 -10)">+active: Boolean</text></g></g><g><g><path fill="none" stroke="none"/><text fill="#000000" stroke="none" font-family="Arial" font-size="13px" font-style="normal" font-weight="normal" text-decoration="undefined" x="622.188232421875" y="322.5" text-anchor="start" dominant-baseline="central" transform="matrix(1 0 0 1 -10 -10)">+fs_uniquifier: String(255)</text></g></g><g><g><path fill="none" stroke="none"/><text fill="#000000" stroke="none" font-family="Arial" font-size="13px" font-style="normal" font-weight="normal" text-decoration="undefined" x="622.188232421875" y="337.5" text-anchor="start" dominant-baseline="central" transform="matrix(1 0 0 1 -10 -10)">+roles: List</text></g></g><g><g><path fill="none" stroke="none"/><text fill="#000000" stroke="none" font-family="Arial" font-size="13px" font-style="normal" font-weight="normal" text-decoration="undefined" x="622.188232421875" y="360.5" text-anchor="start" dominant-baseline="central" transform="matrix(1 0 0 1 -10 -10)">+login()</text></g></g><g><g><path fill="none" stroke="none"/><text fill="#000000" stroke="none" font-family="Arial" font-size="13px" font-style="normal" font-weight="normal" text-decoration="undefined" x="622.188232421875" y="375.5" text-anchor="start" dominant-baseline="central" transform="matrix(1 0 0 1 -10 -10)">+logout()</text></g></g><g><rect fill="#C0C0C0" stroke="none" x="257.210693359375" y="225.5" width="190.33056640625" height="161" transform="matrix(1 0 0 1 -10 -10)" fill-opacity="0.2"/></g><g><rect fill="#ffffff" stroke="none" x="250.210693359375" y="218.5" width="190.33056640625" height="161" transform="matrix(1 0 0 1 -10 -10)"/></g><g><path fill="none" stroke="#000000" paint-order="fill stroke markers" d=" M 240.210693359375 208.5 L 430.541259765625 208.5 L 430.541259765625 369.5 L 240.210693359375 369.5 L 240.210693359375 208.5 Z Z" stroke-miterlimit="10" stroke-dasharray=""/></g><g><path fill="none" stroke="#000000" paint-order="fill stroke markers" d=" M 240.210693359375 233.5 L 430.541259765625 233.5" stroke-miterlimit="10" stroke-dasharray=""/></g><g><path fill="none" stroke="#000000" paint-order="fill stroke markers" d=" M 240.210693359375 301.5 L 430.541259765625 301.5" stroke-miterlimit="10" stroke-dasharray=""/></g><g><g><path fill="none" stroke="none"/><text fill="#000000" stroke="none" font-family="Arial" font-size="13px" font-style="normal" font-weight="bold" text-decoration="undefined" x="345.8759765625" y="232" text-anchor="middle" dominant-baseline="central" transform="matrix(1 0 0 1 -10 -10)">Project</text></g></g><g><g><path fill="none" stroke="none"/><text fill="#000000" stroke="none" font-family="Arial" font-size="13px" font-style="normal" font-weight="normal" text-decoration="undefined" x="255.210693359375" y="255" text-anchor="start" dominant-baseline="central" transform="matrix(1 0 0 1 -10 -10)">+project_id: Integer {id, unique}</text></g></g><g><g><path fill="none" stroke="none"/><text fill="#000000" stroke="none" font-family="Arial" font-size="13px" font-style="normal" font-weight="normal" text-decoration="undefined" x="255.210693359375" y="270" text-anchor="start" dominant-baseline="central" transform="matrix(1 0 0 1 -10 -10)">+title: String(255)</text></g></g><g><g><path fill="none" stroke="none"/><text fill="#000000" stroke="none" font-family="Arial" font-size="13px" font-style="normal" font-weight="normal" text-decoration="undefined" x="255.210693359375" y="285" text-anchor="start" dominant-baseline="central" transform="matrix(1 0 0 1 -10 -10)">+description: String(255)</text></g></g><g><g><path fill="none" stroke="none"/><text fill="#000000" stroke="none" font-family="Arial" font-size="13px" font-style="normal" font-weight="normal" text-decoration="undefined" x="255.210693359375" y="300" text-anchor="start" dominant-baseline="central" transform="matrix(1 0 0 1 -10 -10)">+created_at: DateTime</text></g></g><g><g><path fill="none" stroke="none"/><text fill="#000000" stroke="none" font-family="Arial" font-size="13px" font-style="normal" font-weight="normal" text-decoration="undefined" x="255.210693359375" y="323" text-anchor="start" dominant-baseline="central" transform="matrix(1 0 0 1 -10 -10)">+getProject()</text></g></g><g><g><path fill="none" stroke="none"/><text fill="#000000" stroke="none" font-family="Arial" font-size="13px" font-style="normal" font-weight="normal" text-decoration="undefined" x="255.210693359375" y="338" text-anchor="start" dominant-baseline="central" transform="matrix(1 0 0 1 -10 -10)">+createProject()</text></g></g><g><g><path fill="none" stroke="none"/><text fill="#000000" stroke="none" font-family="Arial" font-size="13px" font-style="normal" font-weight="normal" text-decoration="undefined" x="255.210693359375" y="353" text-anchor="start" dominant-baseline="central" transform="matrix(1 0 0 1 -10 -10)">+editProject()</text></g></g><g><g><path fill="none" stroke="none"/><text fill="#000000" stroke="none" font-family="Arial" font-size="13px" font-style="normal" font-weight="normal" text-decoration="undefined" x="255.210693359375" y="368" text-anchor="start" dominant-baseline="central" transform="matrix(1 0 0 1 -10 -10)">+deleteProject()</text></g></g><g><rect fill="#C0C0C0" stroke="none" x="27" y="424" width="206.94873046875" height="251" transform="matrix(1 0 0 1 -10 -10)" fill-opacity="0.2"/></g><g><rect fill="#ffffff" stroke="none" x="20" y="417" width="206.94873046875" height="251" transform="matrix(1 0 0 1 -10 -10)"/></g><g><path fill="none" stroke="#000000" paint-order="fill stroke markers" d=" M 10 407 L 216.94873046875 407 L 216.94873046875 658 L 10 658 L 10 407 Z Z" stroke-miterlimit="10" stroke-dasharray=""/></g><g><path fill="none" stroke="#000000" paint-order="fill stroke markers" d=" M 10 432 L 216.94873046875 432" stroke-miterlimit="10" stroke-dasharray=""/></g><g><path fill="none" stroke="#000000" paint-order="fill stroke markers" d=" M 10 575 L 216.94873046875 575" stroke-miterlimit="10" stroke-dasharray=""/></g><g><g><path fill="none" stroke="none"/><text fill="#000000" stroke="none" font-family="Arial" font-size="13px" font-style="normal" font-weight="bold" text-decoration="undefined" x="123.974365234375" y="430.5" text-anchor="middle" dominant-baseline="central" transform="matrix(1 0 0 1 -10 -10)">Milestone</text></g></g><g><g><path fill="none" stroke="none"/><text fill="#000000" stroke="none" font-family="Arial" font-size="13px" font-style="normal" font-weight="normal" text-decoration="undefined" x="25" y="453.5" text-anchor="start" dominant-baseline="central" transform="matrix(1 0 0 1 -10 -10)">+milestone_id: Integer {id, unique}</text></g></g><g><g><path fill="none" stroke="none"/><text fill="#000000" stroke="none" font-family="Arial" font-size="13px" font-style="normal" font-weight="normal" text-decoration="undefined" x="25" y="468.5" text-anchor="start" dominant-baseline="central" transform="matrix(1 0 0 1 -10 -10)">+project_id: Integer</text></g></g><g><g><path fill="none" stroke="none"/><text fill="#000000" stroke="none" font-family="Arial" font-size="13px" font-style="normal" font-weight="normal" text-decoration="undefined" x="25" y="483.5" text-anchor="start" dominant-baseline="central" transform="matrix(1 0 0 1 -10 -10)">+title: String(255)</text></g></g><g><g><path fill="none" stroke="none"/><text fill="#000000" stroke="none" font-family="Arial" font-size="13px" font-style="normal" font-weight="normal" text-decoration="undefined" x="25" y="498.5" text-anchor="start" dominant-baseline="central" transform="matrix(1 0 0 1 -10 -10)">+description: String(255)</text></g></g><g><g><path fill="none" stroke="none"/><text fill="#000000" stroke="none" font-family="Arial" font-size="13px" font-style="normal" font-weight="normal" text-decoration="undefined" x="25" y="513.5" text-anchor="start" dominant-baseline="central" transform="matrix(1 0 0 1 -10 -10)">+start_date: DateTime</text></g></g><g><g><path fill="none" stroke="none"/><text fill="#000000" stroke="none" font-family="Arial" font-size="13px" font-style="normal" font-weight="normal" text-decoration="undefined" x="25" y="528.5" text-anchor="start" dominant-baseline="central" transform="matrix(1 0 0 1 -10 -10)">+end_date: DateTime</text></g></g><g><g><path fill="none" stroke="none"/><text fill="#000000" stroke="none" font-family="Arial" font-size="13px" font-style="normal" font-weight="normal" text-decoration="undefined" x="25" y="543.5" text-anchor="start" dominant-baseline="central" transform="matrix(1 0 0 1 -10 -10)">+weightage: Integer</text></g></g><g><g><path fill="none" stroke="none"/><text fill="#000000" stroke="none" font-family="Arial" font-size="13px" font-style="normal" font-weight="normal" text-decoration="undefined" x="25" y="558.5" text-anchor="start" dominant-baseline="central" transform="matrix(1 0 0 1 -10 -10)">+document_url: String(255)</text></g></g><g><g><path fill="none" stroke="none"/><text fill="#000000" stroke="none" font-family="Arial" font-size="13px" font-style="normal" font-weight="normal" text-decoration="undefined" x="25" y="573.5" text-anchor="start" dominant-baseline="central" transform="matrix(1 0 0 1 -10 -10)">+created_at: DateTime</text></g></g><g><g><path fill="none" stroke="none"/><text fill="#000000" stroke="none" font-family="Arial" font-size="13px" font-style="normal" font-weight="normal" text-decoration="undefined" x="25" y="596.5" text-anchor="start" dominant-baseline="central" transform="matrix(1 0 0 1 -10 -10)">+getMilestone()</text></g></g><g><g><path fill="none" stroke="none"/><text fill="#000000" stroke="none" font-family="Arial" font-size="13px" font-style="normal" font-weight="normal" text-decoration="undefined" x="25" y="611.5" text-anchor="start" dominant-baseline="central" transform="matrix(1 0 0 1 -10 -10)">+createMilestone()</text></g></g><g><g><path fill="none" stroke="none"/><text fill="#000000" stroke="none" font-family="Arial" font-size="13px" font-style="normal" font-weight="normal" text-decoration="undefined" x="25" y="626.5" text-anchor="start" dominant-baseline="central" transform="matrix(1 0 0 1 -10 -10)">+generateMilestones()</text></g></g><g><g><path fill="none" stroke="none"/><text fill="#000000" stroke="none" font-family="Arial" font-size="13px" font-style="normal" font-weight="normal" text-decoration="undefined" x="25" y="641.5" text-anchor="start" dominant-baseline="central" transform="matrix(1 0 0 1 -10 -10)">+editMilestone()</text></g></g><g><g><path fill="none" stroke="none"/><text fill="#000000" stroke="none" font-family="Arial" font-size="13px" font-style="normal" font-weight="normal" text-decoration="undefined" x="25" y="656.5" text-anchor="start" dominant-baseline="central" transform="matrix(1 0 0 1 -10 -10)">+deleteMilestone()</text></g></g><g><rect fill="#C0C0C0" stroke="none" x="252.06591796875" y="27" width="200.6201171875" height="161" transform="matrix(1 0 0 1 -10 -10)" fill-opacity="0.2"/></g><g><rect fill="#ffffff" stroke="none" x="245.06591796875" y="20" width="200.6201171875" height="161" transform="matrix(1 0 0 1 -10 -10)"/></g><g><path fill="none" stroke="#000000" paint-order="fill stroke markers" d=" M 235.06591796875 10 L 435.68603515625 10 L 435.68603515625 171 L 235.06591796875 171 L 235.06591796875 10 Z Z" stroke-miterlimit="10" stroke-dasharray=""/></g><g><path fill="none" stroke="#000000" paint-order="fill stroke markers" d=" M 235.06591796875 35 L 435.68603515625 35" stroke-miterlimit="10" stroke-dasharray=""/></g><g><path fill="none" stroke="#000000" paint-order="fill stroke markers" d=" M 235.06591796875 118 L 435.68603515625 118" stroke-miterlimit="10" stroke-dasharray=""/></g><g><g><path fill="none" stroke="none"/><text fill="#000000" stroke="none" font-family="Arial" font-size="13px" font-style="normal" font-weight="bold" text-decoration="undefined" x="345.8759765625" y="33.5" text-anchor="middle" dominant-baseline="central" transform="matrix(1 0 0 1 -10 -10)">ChatHistory</text></g></g><g><g><path fill="none" stroke="none"/><text fill="#000000" stroke="none" font-family="Arial" font-size="13px" font-style="normal" font-weight="normal" text-decoration="undefined" x="250.06591796875" y="56.5" text-anchor="start" dominant-baseline="central" transform="matrix(1 0 0 1 -10 -10)">+chat_id: Integer {id, unique}</text></g></g><g><g><path fill="none" stroke="none"/><text fill="#000000" stroke="none" font-family="Arial" font-size="13px" font-style="normal" font-weight="normal" text-decoration="undefined" x="250.06591796875" y="71.5" text-anchor="start" dominant-baseline="central" transform="matrix(1 0 0 1 -10 -10)">+project_id: Integer</text></g></g><g><g><path fill="none" stroke="none"/><text fill="#000000" stroke="none" font-family="Arial" font-size="13px" font-style="normal" font-weight="normal" text-decoration="undefined" x="250.06591796875" y="86.5" text-anchor="start" dominant-baseline="central" transform="matrix(1 0 0 1 -10 -10)">+instructor_id: Integer</text></g></g><g><g><path fill="none" stroke="none"/><text fill="#000000" stroke="none" font-family="Arial" font-size="13px" font-style="normal" font-weight="normal" text-decoration="undefined" x="250.06591796875" y="101.5" text-anchor="start" dominant-baseline="central" transform="matrix(1 0 0 1 -10 -10)">+message_text: String(255)</text></g></g><g><g><path fill="none" stroke="none"/><text fill="#000000" stroke="none" font-family="Arial" font-size="13px" font-style="normal" font-weight="normal" text-decoration="undefined" x="250.06591796875" y="116.5" text-anchor="start" dominant-baseline="central" transform="matrix(1 0 0 1 -10 -10)">+message_timestamp: DateTime</text></g></g><g><g><path fill="none" stroke="none"/><text fill="#000000" stroke="none" font-family="Arial" font-size="13px" font-style="normal" font-weight="normal" text-decoration="undefined" x="250.06591796875" y="139.5" text-anchor="start" dominant-baseline="central" transform="matrix(1 0 0 1 -10 -10)">+fetchChat()</text></g></g><g><g><path fill="none" stroke="none"/><text fill="#000000" stroke="none" font-family="Arial" font-size="13px" font-style="normal" font-weight="normal" text-decoration="undefined" x="250.06591796875" y="154.5" text-anchor="start" dominant-baseline="central" transform="matrix(1 0 0 1 -10 -10)">+askAI()</text></g></g><g><rect fill="#C0C0C0" stroke="none" x="35.3154296875" y="705" width="190.31787109375" height="191" transform="matrix(1 0 0 1 -10 -10)" fill-opacity="0.2"/></g><g><rect fill="#ffffff" stroke="none" x="28.3154296875" y="698" width="190.31787109375" height="191" transform="matrix(1 0 0 1 -10 -10)"/></g><g><path fill="none" stroke="#000000" paint-order="fill stroke markers" d=" M 18.3154296875 688 L 208.63330078125 688 L 208.63330078125 879 L 18.3154296875 879 L 18.3154296875 688 Z Z" stroke-miterlimit="10" stroke-dasharray=""/></g><g><path fill="none" stroke="#000000" paint-order="fill stroke markers" d=" M 18.3154296875 713 L 208.63330078125 713" stroke-miterlimit="10" stroke-dasharray=""/></g><g><path fill="none" stroke="#000000" paint-order="fill stroke markers" d=" M 18.3154296875 826 L 208.63330078125 826" stroke-miterlimit="10" stroke-dasharray=""/></g><g><g><path fill="none" stroke="none"/><text fill="#000000" stroke="none" font-family="Arial" font-size="13px" font-style="normal" font-weight="bold" text-decoration="undefined" x="123.974365234375" y="711.5" text-anchor="middle" dominant-baseline="central" transform="matrix(1 0 0 1 -10 -10)">MilestoneSubmission</text></g></g><g><g><path fill="none" stroke="none"/><text fill="#000000" stroke="none" font-family="Arial" font-size="13px" font-style="normal" font-weight="normal" text-decoration="undefined" x="33.3154296875" y="734.5" text-anchor="start" dominant-baseline="central" transform="matrix(1 0 0 1 -10 -10)">+submission_id: Int {id, unique}</text></g></g><g><g><path fill="none" stroke="none"/><text fill="#000000" stroke="none" font-family="Arial" font-size="13px" font-style="normal" font-weight="normal" text-decoration="undefined" x="33.3154296875" y="749.5" text-anchor="start" dominant-baseline="central" transform="matrix(1 0 0 1 -10 -10)">+milestone_id: Integer</text></g></g><g><g><path fill="none" stroke="none"/><text fill="#000000" stroke="none" font-family="Arial" font-size="13px" font-style="normal" font-weight="normal" text-decoration="undefined" x="33.3154296875" y="764.5" text-anchor="start" dominant-baseline="central" transform="matrix(1 0 0 1 -10 -10)">+student_id: Integer</text></g></g><g><g><path fill="none" stroke="none"/><text fill="#000000" stroke="none" font-family="Arial" font-size="13px" font-style="normal" font-weight="normal" text-decoration="undefined" x="33.3154296875" y="779.5" text-anchor="start" dominant-baseline="central" transform="matrix(1 0 0 1 -10 -10)">+submission_date: DateTime</text></g></g><g><g><path fill="none" stroke="none"/><text fill="#000000" stroke="none" font-family="Arial" font-size="13px" font-style="normal" font-weight="normal" text-decoration="undefined" x="33.3154296875" y="794.5" text-anchor="start" dominant-baseline="central" transform="matrix(1 0 0 1 -10 -10)">+evaluation_status: String(255)</text></g></g><g><g><path fill="none" stroke="none"/><text fill="#000000" stroke="none" font-family="Arial" font-size="13px" font-style="normal" font-weight="normal" text-decoration="undefined" x="33.3154296875" y="809.5" text-anchor="start" dominant-baseline="central" transform="matrix(1 0 0 1 -10 -10)">+evaluation_date: DateTime</text></g></g><g><g><path fill="none" stroke="none"/><text fill="#000000" stroke="none" font-family="Arial" font-size="13px" font-style="normal" font-weight="normal" text-decoration="undefined" x="33.3154296875" y="824.5" text-anchor="start" dominant-baseline="central" transform="matrix(1 0 0 1 -10 -10)">+document_url: String(255)</text></g></g><g><g><path fill="none" stroke="none"/><text fill="#000000" stroke="none" font-family="Arial" font-size="13px" font-style="normal" font-weight="normal" text-decoration="undefined" x="33.3154296875" y="847.5" text-anchor="start" dominant-baseline="central" transform="matrix(1 0 0 1 -10 -10)">+getSubmission()</text></g></g><g><g><path fill="none" stroke="none"/><text fill="#000000" stroke="none" font-family="Arial" font-size="13px" font-style="normal" font-weight="normal" text-decoration="undefined" x="33.3154296875" y="862.5" text-anchor="start" dominant-baseline="central" transform="matrix(1 0 0 1 -10 -10)">+createSubmission()</text></g></g><g><g><path fill="none" stroke="none"/><text fill="#000000" stroke="none" font-family="Arial" font-size="13px" font-style="normal" font-weight="normal" text-decoration="undefined" x="33.3154296875" y="877.5" text-anchor="start" dominant-baseline="central" transform="matrix(1 0 0 1 -10 -10)">+deleteSubmission()</text></g></g><g><rect fill="#C0C0C0" stroke="none" x="263.94873046875" y="476.5" width="176.8544921875" height="146" transform="matrix(1 0 0 1 -10 -10)" fill-opacity="0.2"/></g><g><rect fill="#ffffff" stroke="none" x="256.94873046875" y="469.5" width="176.8544921875" height="146" transform="matrix(1 0 0 1 -10 -10)"/></g><g><path fill="none" stroke="#000000" paint-order="fill stroke markers" d=" M 246.94873046875 459.5 L 423.80322265625 459.5 L 423.80322265625 605.5 L 246.94873046875 605.5 L 246.94873046875 459.5 Z Z" stroke-miterlimit="10" stroke-dasharray=""/></g><g><path fill="none" stroke="#000000" paint-order="fill stroke markers" d=" M 246.94873046875 484.5 L 423.80322265625 484.5" stroke-miterlimit="10" stroke-dasharray=""/></g><g><path fill="none" stroke="#000000" paint-order="fill stroke markers" d=" M 246.94873046875 552.5 L 423.80322265625 552.5" stroke-miterlimit="10" stroke-dasharray=""/></g><g><g><path fill="none" stroke="none"/><text fill="#000000" stroke="none" font-family="Arial" font-size="13px" font-style="normal" font-weight="bold" text-decoration="undefined" x="345.8759765625" y="483" text-anchor="middle" dominant-baseline="central" transform="matrix(1 0 0 1 -10 -10)">ProjectStudentAssignment</text></g></g><g><g><path fill="none" stroke="none"/><text fill="#000000" stroke="none" font-family="Arial" font-size="13px" font-style="normal" font-weight="normal" text-decoration="undefined" x="261.94873046875" y="506" text-anchor="start" dominant-baseline="central" transform="matrix(1 0 0 1 -10 -10)">+project_id: Integer</text></g></g><g><g><path fill="none" stroke="none"/><text fill="#000000" stroke="none" font-family="Arial" font-size="13px" font-style="normal" font-weight="normal" text-decoration="undefined" x="261.94873046875" y="521" text-anchor="start" dominant-baseline="central" transform="matrix(1 0 0 1 -10 -10)">+student_id: Integer</text></g></g><g><g><path fill="none" stroke="none"/><text fill="#000000" stroke="none" font-family="Arial" font-size="13px" font-style="normal" font-weight="normal" text-decoration="undefined" x="261.94873046875" y="536" text-anchor="start" dominant-baseline="central" transform="matrix(1 0 0 1 -10 -10)">+github_url: String(255)</text></g></g><g><g><path fill="none" stroke="none"/><text fill="#000000" stroke="none" font-family="Arial" font-size="13px" font-style="normal" font-weight="normal" text-decoration="undefined" x="261.94873046875" y="551" text-anchor="start" dominant-baseline="central" transform="matrix(1 0 0 1 -10 -10)">+assigned_date: DateTime</text></g></g><g><g><path fill="none" stroke="none"/><text fill="#000000" stroke="none" font-family="Arial" font-size="13px" font-style="normal" font-weight="normal" text-decoration="undefined" x="261.94873046875" y="574" text-anchor="start" dominant-baseline="central" transform="matrix(1 0 0 1 -10 -10)">+getStudents()</text></g></g><g><g><path fill="none" stroke="none"/><text fill="#000000" stroke="none" font-family="Arial" font-size="13px" font-style="normal" font-weight="normal" text-decoration="undefined" x="261.94873046875" y="589" text-anchor="start" dominant-baseline="central" transform="matrix(1 0 0 1 -10 -10)">+addStudent()</text></g></g><g><g><path fill="none" stroke="none"/><text fill="#000000" stroke="none" font-family="Arial" font-size="13px" font-style="normal" font-weight="normal" text-decoration="undefined" x="261.94873046875" y="604" text-anchor="start" dominant-baseline="central" transform="matrix(1 0 0 1 -10 -10)">+removeStudent()</text></g></g><g><rect fill="#C0C0C0" stroke="none" x="470.80322265625" y="484" width="189.1435546875" height="131" transform="matrix(1 0 0 1 -10 -10)" fill-opacity="0.2"/></g><g><rect fill="#ffffff" stroke="none" x="463.80322265625" y="477" width="189.1435546875" height="131" transform="matrix(1 0 0 1 -10 -10)"/></g><g><path fill="none" stroke="#000000" paint-order="fill stroke markers" d=" M 453.80322265625 467 L 642.94677734375 467 L 642.94677734375 598 L 453.80322265625 598 L 453.80322265625 467 Z Z" stroke-miterlimit="10" stroke-dasharray=""/></g><g><path fill="none" stroke="#000000" paint-order="fill stroke markers" d=" M 453.80322265625 492 L 642.94677734375 492" stroke-miterlimit="10" stroke-dasharray=""/></g><g><path fill="none" stroke="#000000" paint-order="fill stroke markers" d=" M 453.80322265625 545 L 642.94677734375 545" stroke-miterlimit="10" stroke-dasharray=""/></g><g><g><path fill="none" stroke="none"/><text fill="#000000" stroke="none" font-family="Arial" font-size="13px" font-style="normal" font-weight="bold" text-decoration="undefined" x="558.875" y="490.5" text-anchor="middle" dominant-baseline="central" transform="matrix(1 0 0 1 -10 -10)">ProjectInstructorAssignment</text></g></g><g><g><path fill="none" stroke="none"/><text fill="#000000" stroke="none" font-family="Arial" font-size="13px" font-style="normal" font-weight="normal" text-decoration="undefined" x="468.80322265625" y="513.5" text-anchor="start" dominant-baseline="central" transform="matrix(1 0 0 1 -10 -10)">+project_id: Integer</text></g></g><g><g><path fill="none" stroke="none"/><text fill="#000000" stroke="none" font-family="Arial" font-size="13px" font-style="normal" font-weight="normal" text-decoration="undefined" x="468.80322265625" y="528.5" text-anchor="start" dominant-baseline="central" transform="matrix(1 0 0 1 -10 -10)">+instructor_id: Integer</text></g></g><g><g><path fill="none" stroke="none"/><text fill="#000000" stroke="none" font-family="Arial" font-size="13px" font-style="normal" font-weight="normal" text-decoration="undefined" x="468.80322265625" y="543.5" text-anchor="start" dominant-baseline="central" transform="matrix(1 0 0 1 -10 -10)">+assigned_date: DateTime</text></g></g><g><g><path fill="none" stroke="none"/><text fill="#000000" stroke="none" font-family="Arial" font-size="13px" font-style="normal" font-weight="normal" text-decoration="undefined" x="468.80322265625" y="566.5" text-anchor="start" dominant-baseline="central" transform="matrix(1 0 0 1 -10 -10)">+getInstructors()</text></g></g><g><g><path fill="none" stroke="none"/><text fill="#000000" stroke="none" font-family="Arial" font-size="13px" font-style="normal" font-weight="normal" text-decoration="undefined" x="468.80322265625" y="581.5" text-anchor="start" dominant-baseline="central" transform="matrix(1 0 0 1 -10 -10)">+assignInstructor()</text></g></g><g><g><path fill="none" stroke="none"/><text fill="#000000" stroke="none" font-family="Arial" font-size="13px" font-style="normal" font-weight="normal" text-decoration="undefined" x="468.80322265625" y="596.5" text-anchor="start" dominant-baseline="central" transform="matrix(1 0 0 1 -10 -10)">+removeInstructor()</text></g></g><g><rect fill="#C0C0C0" stroke="none" x="667.9140625" y="756.5" width="151.99072265625" height="88" transform="matrix(1 0 0 1 -10 -10)" fill-opacity="0.2"/></g><g><rect fill="#ffffff" stroke="none" x="660.9140625" y="749.5" width="151.99072265625" height="88" transform="matrix(1 0 0 1 -10 -10)"/></g><g><path fill="none" stroke="#000000" paint-order="fill stroke markers" d=" M 650.9140625 739.5 L 802.90478515625 739.5 L 802.90478515625 827.5 L 650.9140625 827.5 L 650.9140625 739.5 Z Z" stroke-miterlimit="10" stroke-dasharray=""/></g><g><path fill="none" stroke="#000000" paint-order="fill stroke markers" d=" M 650.9140625 764.5 L 802.90478515625 764.5" stroke-miterlimit="10" stroke-dasharray=""/></g><g><path fill="none" stroke="#000000" paint-order="fill stroke markers" d=" M 650.9140625 817.5 L 802.90478515625 817.5" stroke-miterlimit="10" stroke-dasharray=""/></g><g><g><path fill="none" stroke="none"/><text fill="#000000" stroke="none" font-family="Arial" font-size="13px" font-style="normal" font-weight="bold" text-decoration="undefined" x="737.409423828125" y="763" text-anchor="middle" dominant-baseline="central" transform="matrix(1 0 0 1 -10 -10)">Role</text></g></g><g><g><path fill="none" stroke="none"/><text fill="#000000" stroke="none" font-family="Arial" font-size="13px" font-style="normal" font-weight="normal" text-decoration="undefined" x="665.9140625" y="786" text-anchor="start" dominant-baseline="central" transform="matrix(1 0 0 1 -10 -10)">+id: Integer {id, unique}</text></g></g><g><g><path fill="none" stroke="none"/><text fill="#000000" stroke="none" font-family="Arial" font-size="13px" font-style="normal" font-weight="normal" text-decoration="undefined" x="665.9140625" y="801" text-anchor="start" dominant-baseline="central" transform="matrix(1 0 0 1 -10 -10)">+name: String(255)</text></g></g><g><g><path fill="none" stroke="none"/><text fill="#000000" stroke="none" font-family="Arial" font-size="13px" font-style="normal" font-weight="normal" text-decoration="undefined" x="665.9140625" y="816" text-anchor="start" dominant-baseline="central" transform="matrix(1 0 0 1 -10 -10)">+description: String(255)</text></g></g><g><rect fill="#C0C0C0" stroke="none" x="689.94677734375" y="513" width="107.92529296875" height="73" transform="matrix(1 0 0 1 -10 -10)" fill-opacity="0.2"/></g><g><rect fill="#ffffff" stroke="none" x="682.94677734375" y="506" width="107.92529296875" height="73" transform="matrix(1 0 0 1 -10 -10)"/></g><g><path fill="none" stroke="#000000" paint-order="fill stroke markers" d=" M 672.94677734375 496 L 780.8720703125 496 L 780.8720703125 569 L 672.94677734375 569 L 672.94677734375 496 Z Z" stroke-miterlimit="10" stroke-dasharray=""/></g><g><path fill="none" stroke="#000000" paint-order="fill stroke markers" d=" M 672.94677734375 521 L 780.8720703125 521" stroke-miterlimit="10" stroke-dasharray=""/></g><g><path fill="none" stroke="#000000" paint-order="fill stroke markers" d=" M 672.94677734375 559 L 780.8720703125 559" stroke-miterlimit="10" stroke-dasharray=""/></g><g><g><path fill="none" stroke="none"/><text fill="#000000" stroke="none" font-family="Arial" font-size="13px" font-style="normal" font-weight="bold" text-decoration="undefined" x="737.409423828125" y="519.5" text-anchor="middle" dominant-baseline="central" transform="matrix(1 0 0 1 -10 -10)">roles_users</text></g></g><g><g><path fill="none" stroke="none"/><text fill="#000000" stroke="none" font-family="Arial" font-size="13px" font-style="normal" font-weight="normal" text-decoration="undefined" x="687.94677734375" y="542.5" text-anchor="start" dominant-baseline="central" transform="matrix(1 0 0 1 -10 -10)">+user_id: Integer</text></g></g><g><g><path fill="none" stroke="none"/><text fill="#000000" stroke="none" font-family="Arial" font-size="13px" font-style="normal" font-weight="normal" text-decoration="undefined" x="687.94677734375" y="557.5" text-anchor="start" dominant-baseline="central" transform="matrix(1 0 0 1 -10 -10)">+role_id: Integer</text></g></g><g><path fill="none" stroke="#000000" paint-order="fill stroke markers" d=" M 726 739 Q 727 673 726 570" stroke-miterlimit="10" stroke-dasharray=""/></g><g><path fill="none" stroke="#000000" paint-order="fill stroke markers" d=" M 726 495 Q 727 392 727 378" stroke-miterlimit="10" stroke-dasharray=""/></g><g><path fill="none" stroke="#000000" paint-order="fill stroke markers" d=" M 335 459 Q 335 392 335 371" stroke-miterlimit="10" stroke-dasharray=""/></g><g><path fill="#FFFFFF" stroke="none" paint-order="stroke fill markers" d=" M 339.209517756016 381.16267485762415 L 335 371 L 330.790482243984 381.16267485762415 L 335 393"/></g><g><path fill="none" stroke="#000000" paint-order="fill stroke markers" d=" M 339.209517756016 381.16267485762415 L 335 371 L 330.790482243984 381.16267485762415 L 335 393 L 339.209517756016 381.16267485762415" stroke-miterlimit="10" stroke-dasharray=""/></g><g><path fill="none" stroke="#000000" paint-order="fill stroke markers" d=" M 548 466 Q 548 392 432 336" stroke-miterlimit="10" stroke-dasharray=""/></g><g><path fill="#FFFFFF" stroke="none" paint-order="stroke fill markers" d=" M 442.9820973849023 336.6273252972121 L 432 336 L 439.3219295608469 344.20910150418405 L 451.8121360000207 345.56447944828585"/></g><g><path fill="none" stroke="#000000" paint-order="fill stroke markers" d=" M 442.9820973849023 336.6273252972121 L 432 336 L 439.3219295608469 344.20910150418405 L 451.8121360000207 345.56447944828585 L 442.9820973849023 336.6273252972121" stroke-miterlimit="10" stroke-dasharray=""/></g><g><path fill="none" stroke="#000000" paint-order="fill stroke markers" d=" M 113 687 Q 113 673 113 659" stroke-miterlimit="10" stroke-dasharray=""/></g><g><path fill="#FFFFFF" stroke="none" paint-order="stroke fill markers" d=" M 117.20951775601598 669.1626748576241 L 113 659 L 108.79048224398402 669.1626748576241 L 113 681"/></g><g><path fill="none" stroke="#000000" paint-order="fill stroke markers" d=" M 117.20951775601598 669.1626748576241 L 113 659 L 108.79048224398402 669.1626748576241 L 113 681 L 117.20951775601598 669.1626748576241" stroke-miterlimit="10" stroke-dasharray=""/></g><g><path fill="none" stroke="#000000" paint-order="fill stroke markers" d=" M 100 406 Q 98 392 98 340.5 Q 98 289 98 237.5 Q 98 186 234 131" stroke-miterlimit="10" stroke-dasharray=""/></g><g><path fill="none" stroke="#000000" paint-order="fill stroke markers" d=" M 226.15680052127973 138.7126015025413 L 234 131 L 223.0003876393616 130.90765328543463" stroke-miterlimit="10" stroke-dasharray=""/></g><g><path fill="none" stroke="#000000" paint-order="fill stroke markers" d=" M 335 208 Q 335 186 335 172" stroke-miterlimit="10" stroke-dasharray=""/></g><g><path fill="none" stroke="#000000" paint-order="fill stroke markers" d=" M 339.209517756016 182.16267485762415 L 335 172 L 330.790482243984 182.16267485762415" stroke-miterlimit="10" stroke-dasharray=""/></g><g><path fill="none" stroke="#000000" paint-order="fill stroke markers" d=" M 727 200 Q 727 186 437 115" stroke-miterlimit="10" stroke-dasharray=""/></g><g><path fill="none" stroke="#000000" paint-order="fill stroke markers" d=" M 447.8721804220895 113.32796744363824 L 437 115 L 445.8700980617112 121.50548694377503" stroke-miterlimit="10" stroke-dasharray=""/></g><g><path fill="none" stroke="#000000" paint-order="fill stroke markers" d=" M 199 406 Q 209 392 239 367" stroke-miterlimit="10" stroke-dasharray=""/></g><g><path fill="#FFFFFF" stroke="none" paint-order="stroke fill markers" d=" M 233.88768451425597 376.7398270197279 L 239 367 L 228.49794931923182 370.27214478569897 L 222.09913184885772 381.0840567926186"/></g><g><path fill="none" stroke="#000000" paint-order="fill stroke markers" d=" M 233.88768451425597 376.7398270197279 L 239 367 L 228.49794931923182 370.27214478569897 L 222.09913184885772 381.0840567926186 L 233.88768451425597 376.7398270197279" stroke-miterlimit="10" stroke-dasharray=""/></g></g></svg>